<svg baseProfile="tiny" height="1000" version="1.2" width="1000" xmlns="http://www.w3.org/2000/svg" xmlns:ev="http://www.w3.org/2001/xml-events" xmlns:xlink="http://www.w3.org/1999/xlink"><defs /><rect fill="rgb(125, 172, 205)" height="1000" width="1000" x="0" y="0" /><rect fill="rgb(215, 154, 253)" height="125.0" width="125.0" x="125.0" y="0.0" /><rect fill="rgb(215, 154, 253)" height="125.0" width="125.0" x="250.0" y="0.0" /><rect fill="rgb(215, 154, 253)" height="125.0" width="125.0" x="375.0" y="0.0" /><rect fill="rgb(215, 154, 253)" height="125.0" width="125.0" x="500.0" y="0.0" /><rect fill="rgb(215, 154, 253)" height="125.0" width="125.0" x="625.0" y="0.0" /><rect fill="rgb(215, 154, 253)" height="125.0" width="125.0" x="750.0" y="0.0" /><rect fill="rgb(215, 154, 253)" height="125.0" width="125.0" x="125.0" y="125.0" /><rect fill="rgb(215, 154, 253)" height="125.0" width="125.0" x="250.0" y="125.0" /><rect fill="rgb(215, 154, 253)" height="125.0" width="125.0" x="625.0" y="125.0" /><rect fill="rgb(215, 154, 253)" height="125.0" width="125.0" x="750.0" y="125.0" /><rect fill="rgb(215, 154, 253)" height="125.0" width="125.0" x="0.0" y="250.0" /><rect fill="rgb(215, 154, 253)" height="125.0" width="125.0" x="125.0" y="250.0" /><rect fill="rgb(215, 154, 253)" height="125.0" width="125.0" x="375.0" y="250.0" /><rect fill="rgb(215, 154, 253)" height="125.0" width="125.0" x="500.0" y="250.0" /><rect fill="rgb(215, 154, 253)" height="125.0" width="125.0" x="750.0" y="250.0" /><rect fill="rgb(215, 154, 253)" height="125.0" width="125.0" x="875.0" y="250.0" /><rect fill="rgb(114, 131, 51)" height="125.0" width="125.0" x="0.0" y="375.0" /><rect fill="rgb(215, 154, 253)" height="125.0" width="125.0" x="250.0" y="375.0" /><rect fill="rgb(114, 131, 51)" height="125.0" width="125.0" x="375.0" y="375.0" /><rect fill="rgb(114, 131, 51)" height="125.0" width="125.0" x="500.0" y="375.0" /><rect fill="rgb(215, 154, 253)" height="125.0" width="125.0" x="625.0" y="375.0" /><rect fill="rgb(114, 131, 51)" height="125.0" width="125.0" x="875.0" y="375.0" /><rect fill="rgb(215, 154, 253)" height="125.0" width="125.0" x="250.0" y="500.0" /><rect fill="rgb(215, 154, 253)" height="125.0" width="125.0" x="375.0" y="500.0" /><rect fill="rgb(215, 154, 253)" height="125.0" width="125.0" x="500.0" y="500.0" /><rect fill="rgb(215, 154, 253)" height="125.0" width="125.0" x="625.0" y="500.0" /><rect fill="rgb(215, 154, 253)" height="125.0" width="125.0" x="0.0" y="625.0" /><rect fill="rgb(215, 154, 253)" height="125.0" width="125.0" x="375.0" y="625.0" /><rect fill="rgb(215, 154, 253)" height="125.0" width="125.0" x="500.0" y="625.0" /><rect fill="rgb(215, 154, 253)" height="125.0" width="125.0" x="875.0" y="625.0" /><rect fill="rgb(215, 154, 253)" height="125.0" width="125.0" x="0.0" y="750.0" /><rect fill="rgb(215, 154, 253)" height="125.0" width="125.0" x="125.0" y="750.0" /><rect fill="rgb(215, 154, 253)" height="125.0" width="125.0" x="375.0" y="750.0" /><rect fill="rgb(215, 154, 253)" height="125.0" width="125.0" x="500.0" y="750.0" /><rect fill="rgb(215, 154, 253)" height="125.0" width="125.0" x="750.0" y="750.0" /><rect fill="rgb(215, 154, 253)" height="125.0" width="125.0" x="875.0" y="750.0" /><rect fill="rgb(215, 154, 253)" height="125.0" width="125.0" x="125.0" y="875.0" /><rect fill="rgb(114, 131, 51)" height="125.0" width="125.0" x="375.0" y="875.0" /><rect fill="rgb(114, 131, 51)" height="125.0" width="125.0" x="500.0" y="875.0" /><rect fill="rgb(215, 154, 253)" height="125.0" width="125.0" x="750.0" y="875.0" /></svg>